<?xml version="1.0" encoding="UTF-8" standalone="no"?>
<!DOCTYPE svg PUBLIC "-//W3C//DTD SVG 1.1//EN" "http://www.w3.org/Graphics/SVG/1.1/DTD/svg11.dtd">
<svg width="100%" height="100%" viewBox="0 0 22 22" version="1.1" xmlns="http://www.w3.org/2000/svg" xmlns:xlink="http://www.w3.org/1999/xlink" xml:space="preserve" xmlns:serif="http://www.serif.com/" style="fill-rule:evenodd;clip-rule:evenodd;stroke-linejoin:round;stroke-miterlimit:2;">
    <g transform="matrix(1.375,0,0,1.375,0,0)">
        <rect x="0" y="0" width="16" height="16" style="fill:none;"/>
        <g transform="matrix(0.740995,0,0,0.740995,-0.150943,-0.19211)">
            <path d="M19.833,8.481C19.833,6.652 18.348,5.167 16.519,5.167L5.481,5.167C3.652,5.167 2.167,6.652 2.167,8.481L2.167,14.589C2.167,16.418 3.652,17.833 5.481,17.833C5.481,17.833 16.519,17.903 16.519,17.903C18.348,17.903 19.833,16.418 19.833,14.589L19.833,8.481ZM6.583,10.104C7.219,10.104 7.766,10.233 8.222,10.492C8.679,10.75 9.024,11.117 9.258,11.593C9.493,12.069 9.61,12.628 9.61,13.27C9.61,13.745 9.546,14.176 9.418,14.564C9.289,14.952 9.097,15.288 8.84,15.573C8.583,15.858 8.267,16.075 7.893,16.226C7.519,16.377 7.091,16.452 6.608,16.452C6.128,16.452 5.698,16.375 5.318,16.22C4.939,16.065 4.622,15.847 4.368,15.565C4.114,15.283 3.922,14.943 3.792,14.547C3.662,14.151 3.597,13.722 3.597,13.262C3.597,12.79 3.665,12.357 3.8,11.964C3.936,11.57 4.132,11.235 4.389,10.959C4.645,10.682 4.958,10.471 5.327,10.324C5.695,10.178 6.114,10.104 6.583,10.104ZM16.637,15.653L16.344,14.882L13.848,14.882L13.555,15.669C13.441,15.976 13.343,16.184 13.262,16.291C13.181,16.399 13.049,16.452 12.864,16.452C12.708,16.452 12.57,16.395 12.45,16.281C12.33,16.166 12.27,16.036 12.27,15.891C12.27,15.807 12.284,15.721 12.312,15.632C12.34,15.542 12.386,15.418 12.45,15.259L14.02,11.273C14.065,11.158 14.118,11.021 14.181,10.86C14.244,10.7 14.311,10.566 14.382,10.46C14.453,10.354 14.547,10.268 14.663,10.203C14.779,10.137 14.922,10.104 15.092,10.104C15.265,10.104 15.41,10.137 15.525,10.203C15.641,10.268 15.735,10.353 15.806,10.456C15.877,10.559 15.937,10.67 15.986,10.789C16.035,10.908 16.097,11.066 16.172,11.264L17.776,15.225C17.902,15.527 17.964,15.746 17.964,15.883C17.964,16.025 17.905,16.156 17.786,16.274C17.668,16.393 17.525,16.452 17.357,16.452C17.26,16.452 17.176,16.435 17.106,16.4C17.036,16.365 16.978,16.318 16.93,16.258C16.883,16.198 16.832,16.105 16.777,15.981C16.723,15.857 16.676,15.747 16.637,15.653ZM8.35,13.262C8.35,12.812 8.277,12.423 8.132,12.093C7.987,11.764 7.78,11.515 7.51,11.346C7.241,11.177 6.932,11.093 6.583,11.093C6.334,11.093 6.105,11.139 5.894,11.233C5.683,11.326 5.502,11.462 5.35,11.641C5.198,11.82 5.077,12.048 4.99,12.326C4.902,12.603 4.858,12.915 4.858,13.262C4.858,13.611 4.902,13.926 4.99,14.208C5.077,14.49 5.202,14.724 5.362,14.909C5.523,15.095 5.707,15.234 5.915,15.326C6.123,15.418 6.351,15.464 6.6,15.464C6.918,15.464 7.21,15.385 7.477,15.225C7.743,15.066 7.956,14.821 8.113,14.488C8.271,14.156 8.35,13.747 8.35,13.262ZM14.175,13.948L16.009,13.948L15.084,11.415L14.175,13.948ZM11,9.2L5,6.8L17,6.8L11,9.2Z"/>
        </g>
    </g>
</svg>
