<?xml version="1.0" encoding="UTF-8" standalone="no"?>
<!DOCTYPE svg PUBLIC "-//W3C//DTD SVG 1.1//EN" "http://www.w3.org/Graphics/SVG/1.1/DTD/svg11.dtd">
<svg width="100%" height="100%" viewBox="0 0 44 44" version="1.1" xmlns="http://www.w3.org/2000/svg" xmlns:xlink="http://www.w3.org/1999/xlink" xml:space="preserve" style="fill-rule:evenodd;clip-rule:evenodd;stroke-linejoin:round;stroke-miterlimit:2;">
<path d="M41.999 15.298c0-4.014-3.362-7.273-7.503-7.273H9.504c-4.141 0-7.503 3.259-7.503 7.273v13.406c0 4.014 3.362 7.12 7.503 7.12l24.992.154c4.141 0 7.503-3.259 7.503-7.273V15.298zM12.76 18.092c1.44 0 2.678.283 3.711.849a5.58 5.58 0 0 1 2.348 2.416c.53 1.045.795 2.272.795 3.681 0 1.043-.145 1.988-.435 2.84a6.1 6.1 0 0 1-1.309 2.215c-.582.626-1.295 1.104-2.144 1.435s-1.816.496-2.909.496c-1.087 0-2.06-.171-2.921-.511s-1.576-.819-2.151-1.438-1.01-1.363-1.304-2.232-.442-1.811-.442-2.822c0-1.036.154-1.984.46-2.849s.752-1.6 1.334-2.206a5.76 5.76 0 0 1 2.124-1.391c.833-.323 1.782-.483 2.844-.483zm21.235 12.177l-.663-1.69h-5.651l-.663 1.727c-.26.674-.48 1.128-.663 1.365s-.485.353-.901.353a1.34 1.34 0 0 1-.94-.378c-.272-.25-.408-.536-.408-.854 0-.184.032-.375.095-.571a12.16 12.16 0 0 1 .312-.819l3.922-9.653c.143-.353.294-.645.455-.878a1.83 1.83 0 0 1 .634-.566c.263-.143.586-.215.974-.215s.718.072.98.215.473.329.634.557a3.8 3.8 0 0 1 .41.729l.421 1.045 3.632 8.693c.283.661.426 1.143.426 1.442 0 .314-.134.599-.403.86s-.593.391-.971.391a1.28 1.28 0 0 1-.568-.116 1.12 1.12 0 0 1-.398-.312c-.109-.132-.224-.334-.346-.606l-.317-.722zm-17.235-5.248c0-.985-.165-1.841-.494-2.563s-.797-1.271-1.408-1.642-1.309-.555-2.099-.555c-.564 0-1.082.103-1.56.307s-.888.505-1.232.898-.616.891-.815 1.501-.299 1.295-.299 2.054c0 .766.1 1.457.299 2.076s.48 1.133.842 1.541.781.711 1.252.913.987.305 1.551.305a3.9 3.9 0 0 0 1.986-.525c.602-.349 1.085-.889 1.44-1.618s.537-1.626.537-2.693zm11.66 1.508h4.152l-2.097-5.562-2.056 5.562zM22 17.023L8.415 11.999h27.17L22 17.023z"/>
</svg>
