<?xml version="1.0" encoding="UTF-8" standalone="no"?>
<!DOCTYPE svg PUBLIC "-//W3C//DTD SVG 1.1//EN" "http://www.w3.org/Graphics/SVG/1.1/DTD/svg11.dtd">
<svg width="100%" height="100%" viewBox="0 0 22 22" version="1.1" xmlns="http://www.w3.org/2000/svg" xmlns:xlink="http://www.w3.org/1999/xlink" xml:space="preserve" style="fill-rule:evenodd;clip-rule:evenodd;stroke-linejoin:round;stroke-miterlimit:2;">
    <path d="M21 7.637C21 5.63 19.319 4 17.248 4H4.752C2.682 4 1 5.63 1 7.637v6.703c0 2.007 1.681 3.56 3.752 3.56l12.496.077c2.071 0 3.752-1.63 3.752-3.637V7.637zM6.38 9.034c.72 0 1.339.142 1.855.425a2.79 2.79 0 0 1 1.174 1.208c.265.522.397 1.136.397 1.84 0 .521-.072.994-.217 1.42a3.05 3.05 0 0 1-.654 1.107 2.86 2.86 0 0 1-1.072.718c-.423.165-.908.248-1.455.248s-1.03-.086-1.46-.256-.788-.409-1.075-.719-.505-.681-.652-1.116A4.38 4.38 0 0 1 3 12.499c0-.518.077-.992.23-1.424s.376-.8.667-1.103a2.88 2.88 0 0 1 1.062-.696c.417-.161.891-.241 1.422-.241zm10.618 6.088l-.332-.845H13.84l-.332.864c-.13.337-.24.564-.332.683s-.242.177-.451.177a.67.67 0 0 1-.47-.189c-.136-.125-.204-.268-.204-.427 0-.092.016-.188.048-.285a6.08 6.08 0 0 1 .156-.409l1.961-4.826a2.27 2.27 0 0 1 .228-.439c.08-.116.186-.211.317-.283s.293-.108.487-.108.359.036.49.108.237.165.317.279a1.9 1.9 0 0 1 .205.364l.211.522 1.816 4.347c.142.33.213.572.213.721 0 .157-.067.3-.202.43s-.297.195-.486.195a.64.64 0 0 1-.284-.058.56.56 0 0 1-.199-.156 1.38 1.38 0 0 1-.173-.303l-.158-.361zM8.38 12.499c0-.493-.083-.921-.247-1.282s-.398-.635-.704-.821-.654-.278-1.049-.278c-.282 0-.541.052-.78.154a1.71 1.71 0 0 0-.616.449c-.172.195-.308.446-.408.751a3.3 3.3 0 0 0-.149 1.027c0 .383.05.729.149 1.038s.24.566.421.77a1.78 1.78 0 0 0 .626.457c.235.102.494.153.775.153a1.95 1.95 0 0 0 .993-.262c.301-.174.542-.444.72-.809s.268-.813.268-1.346zm5.83.754h2.076l-1.048-2.781-1.028 2.781zM11 8.5L4.208 5.866h13.585L11 8.5z" fill-opacity=".75"/>
</svg>
